<svg id="Capa_1" enable-background="new 0 0 512.111 512.111" height="512" viewBox="0 0 512.111 512.111" width="512" xmlns="http://www.w3.org/2000/svg"><g><g><g><path d="m307.362 447.281c11.319 0 21.465 4.999 28.371 12.901 9.897-25.195 34.419-43.041 63.126-43.041 37.453 0 67.815 30.362 67.815 67.815h-196.987c0-20.807 16.867-37.675 37.675-37.675z" fill="#d3e1f5"/></g><g><path d="m307.359 447.284c6.928 0 13.417 1.87 18.986 5.139-3.519 4.739-6.429 9.958-8.618 15.537-6.898-7.908-17.046-12.907-28.364-12.907-1.83 0-3.629.13-5.399.38 6.428-5.1 14.557-8.149 23.395-8.149z" fill="#c0d6f2"/></g><g><path d="m466.674 484.956h-18.446c-3.859-33.793-32.543-60.037-67.375-60.037-6.069 0-11.957.8-17.556 2.3 10.338-6.398 22.515-10.078 35.562-10.078 37.452 0 67.815 30.363 67.815 67.815z" fill="#c0d6f2"/></g><g><path d="m173.929 95.233c-8.512 0-16.142 3.759-21.335 9.702-7.442-18.947-25.884-32.367-47.471-32.367-28.165 0-50.998 22.832-50.998 50.998h148.137c-.001-15.648-12.685-28.333-28.333-28.333z" fill="#d3e1f5"/></g><g><path d="m151.552 102.499c-7.398.71-13.957 4.269-18.576 9.568-7.448-18.956-25.884-32.373-47.48-32.373-2.459 0-4.879.17-7.238.51 7.798-4.839 17.006-7.638 26.864-7.638 20.646-.001 38.422 12.287 46.43 29.933z" fill="#c0d6f2"/></g><g><path d="m202.261 123.564h-20.526c-3.099-11.937-13.767-20.816-26.584-21.185 4.999-4.449 11.568-7.148 18.776-7.148 15.647 0 28.334 12.687 28.334 28.333z" fill="#c0d6f2"/></g><g><path d="m367.86 49.82c8.512 0 16.142 3.759 21.335 9.702 7.442-18.947 25.884-32.367 47.471-32.367 28.165 0 50.998 22.832 50.998 50.998h-148.136c0-15.648 12.685-28.333 28.332-28.333z" fill="#d3e1f5"/></g><g><path d="m367.855 49.82c5.299 0 10.248 1.45 14.487 3.989-3.759 4.339-6.799 9.308-8.928 14.747-5.199-5.939-12.827-9.698-21.335-9.698-1.86 0-3.679.18-5.439.53 5.179-5.869 12.767-9.568 21.215-9.568z" fill="#c0d6f2"/></g><g><path d="m487.669 78.154h-16.586c-4.269-23.855-25.115-41.961-50.199-41.961-5.959 0-11.677 1.02-16.996 2.91 8.858-7.458 20.296-11.947 32.783-11.947 28.163-.001 50.998 22.834 50.998 50.998z" fill="#c0d6f2"/></g><g><path d="m487.664 477.459h-13.867c-3.776-38.021-35.941-67.815-74.939-67.815-27.637 0-52.396 14.739-65.609 38.305-7.524-5.265-16.544-8.165-25.888-8.165-22.353 0-40.956 16.324-44.539 37.675h-14.126c-4.141 0-7.498 3.357-7.498 7.498s3.357 7.498 7.498 7.498h238.968c4.141 0 7.498-3.357 7.498-7.498s-3.357-7.498-7.498-7.498zm-209.536 0c3.343-13.023 15.182-22.679 29.234-22.679 8.701 0 16.984 3.768 22.726 10.337 1.723 1.971 4.349 2.901 6.929 2.454 2.58-.448 4.739-2.209 5.696-4.646 9.135-23.257 31.173-38.284 56.146-38.284 30.719 0 56.149 23.086 59.853 52.819h-180.584z"/><path d="m38.34 131.063h179.707c4.141 0 7.498-3.357 7.498-7.498 0-4.142-3.357-7.498-7.498-7.498h-9.082c-3.457-16.168-17.849-28.332-35.035-28.332-6.728 0-13.243 1.894-18.851 5.367-10.481-17.299-29.171-28.033-49.956-28.033-29.713 0-54.305 22.274-57.999 50.998h-8.784c-4.141 0-7.498 3.357-7.498 7.498s3.357 7.498 7.498 7.498zm66.783-50.998c18.01 0 33.904 10.838 40.492 27.611.957 2.437 3.117 4.198 5.697 4.646s5.206-.482 6.929-2.454c3.964-4.536 9.683-7.138 15.689-7.138 8.846 0 16.421 5.542 19.438 13.335h-131.098c3.563-20.424 21.423-36 42.853-36z"/><path d="m323.743 85.651h179.707c4.141 0 7.498-3.357 7.498-7.498 0-4.142-3.357-7.498-7.498-7.498h-8.772c-1.183-9.26-4.548-18.071-9.921-25.815-2.36-3.402-7.031-4.246-10.436-1.886-3.402 2.361-4.247 7.034-1.885 10.435 3.619 5.216 6.017 11.084 7.089 17.266h-131.103c3.017-7.794 10.593-13.336 19.439-13.336 6.006 0 11.725 2.602 15.689 7.138 1.723 1.971 4.351 2.9 6.929 2.454 2.58-.448 4.739-2.209 5.697-4.646 6.588-16.774 22.482-27.611 40.492-27.611 3.863 0 7.692.506 11.38 1.503 3.998 1.081 8.115-1.285 9.195-5.282 1.081-3.997-1.284-8.115-5.282-9.195-4.963-1.341-10.109-2.022-15.294-2.022-20.785 0-39.475 10.734-49.956 28.033-5.608-3.473-12.123-5.367-18.85-5.367-17.185 0-31.578 12.164-35.035 28.333h-9.082c-4.141 0-7.498 3.357-7.498 7.498-.002 4.139 3.356 7.496 7.497 7.496z"/></g></g><g><path d="m443.271 203.83c16.744 5.164 49.634 20.652 49.634 20.652 8.504 2.71 14.405 12.716 10.434 21.65-10.124 22.783-20.465 44.708-48.238 48.593-.02.003-321.503 44.974-321.503 44.974l-88.992-21.547c-5.977-1.949-7.228-9.851-2.146-13.551l76.864-39.275s290.798-63.422 290.838-63.431c11.989-2.613 22.783-1.25 33.109 1.935z" fill="#fdf6ec"/></g><g><path d="m503.342 246.136c-10.13 22.78-20.47 44.71-48.24 48.59-.02 0-321.5 44.97-321.5 44.97l-89-21.54c-5.97-1.95-7.22-9.85-2.14-13.55l8.53-4.36 84.99 20.58s307.64-43.04 307.66-43.04c26.58-3.72 36.48-24.7 46.17-46.5 1.14-2.56 1.43-5.22 1.06-7.75 1.3.61 2.03.95 2.03.95 8.51 2.71 14.41 12.71 10.44 21.65z" fill="#fae2c0"/></g><g><path d="m360.285 280.74-82.252 17.576-91.518 100.344h49.564z" fill="#fddeb0"/></g><g><path d="m360.283 280.736-124.2 117.92h-49.57l18.43-20.21h15.373c3.594 0 7.05-1.379 9.656-3.854l89.721-85.186z" fill="#fccd7f"/></g><g><path d="m110.364 321.129-71.076 66.273h40.065l84.572-72.264z" fill="#fddeb0"/></g><g><path d="m163.923 315.136-84.57 72.27h-40.06l21.89-20.41h15.209c3.332 0 6.551-1.214 9.053-3.415l51.668-45.445z" fill="#fccd7f"/></g><g><path d="m321.581 221.216-68.41-58.454h-48.281l63.49 70.057z" fill="#fddeb0"/></g><g><path d="m321.582 221.215-24.21 5.28-55.06-47.04h-22.29l-15.13-16.689h48.28z" fill="#fccd7f"/></g><g><path d="m61.781 294.73-54.281-110.199 44.116 13.569 67.709 67.227z" fill="#fddeb0"/></g><g><path d="m119.322 265.326-16.29 8.319-55.86-55.46-27.21-8.369-12.46-25.29 44.11 13.57z" fill="#fccd7f"/></g><g><path d="m354.194 242.413-5.898 1.1c-4.072.759-6.758 4.676-5.999 8.747.673 3.608 3.823 6.127 7.365 6.127.456 0 7.281-1.228 7.281-1.228 4.072-.759 6.758-4.676 5.999-8.747-.76-4.072-4.673-6.76-8.748-5.999z"/><path d="m274.86 257.207-12.239 2.282c-4.072.76-6.757 4.676-5.998 8.748.673 3.607 3.823 6.126 7.365 6.126.456 0 13.623-2.41 13.623-2.41 4.072-.76 6.757-4.676 5.998-8.748s-4.677-6.759-8.749-5.998z"/><path d="m317.697 249.219-12.239 2.282c-4.072.76-6.757 4.676-5.998 8.748.673 3.607 3.823 6.126 7.365 6.126.456 0 13.623-2.41 13.623-2.41 4.072-.76 6.757-4.676 5.998-8.748-.76-4.073-4.675-6.762-8.749-5.998z"/><path d="m510.041 230.728c-2.766-6.159-8.103-11.066-14.347-13.222-4.02-1.885-33.979-15.838-50.213-20.844-13.145-4.054-24.875-4.722-36.907-2.096-.017.003-36.376 7.933-84.952 18.527l-65.579-56.035c-1.358-1.16-3.086-1.798-4.872-1.798h-48.281c-2.966 0-5.654 1.748-6.856 4.461-1.202 2.712-.693 5.877 1.299 8.075l54.787 60.454c-48.543 10.587-98.31 21.441-132.407 28.877l-64.813-64.349c-.862-.855-1.918-1.489-3.079-1.847l-44.116-13.57c-2.862-.878-5.972.025-7.914 2.305-1.941 2.278-2.342 5.493-1.02 8.179l51.016 103.569-12.74 6.51c-.349.179-.684.384-1.001.615-4.641 3.377-6.966 8.997-6.069 14.667s4.845 10.298 10.303 12.078c.185.06.372.113.561.158l41.201 9.975-49.867 46.498c-2.253 2.102-2.993 5.367-1.863 8.234 1.129 2.866 3.897 4.751 6.978 4.751h40.064c1.786 0 3.514-.638 4.872-1.798l14.381-12.287c3.149-2.69 3.521-7.425.831-10.574-2.691-3.15-7.425-3.521-10.574-.83l-12.277 10.489h-18.257l55.333-51.595 26.815-2.999-25.374 21.681c-3.149 2.69-3.521 7.425-.83 10.574s7.425 3.52 10.574.83l13.848-11.833c36.608-5.121 68.992-9.651 97.643-13.659l-55.366 60.706c-2.002 2.194-2.52 5.364-1.32 8.082s3.891 4.472 6.861 4.472h49.564c1.922 0 3.77-.737 5.164-2.061l88.801-84.307c125.115-17.502 126.093-17.639 126.095-17.639 32.536-4.551 44.467-31.4 54.053-52.975 2.611-5.869 2.557-12.421-.15-18.449zm-288.232-60.466h28.594l54.823 46.844c-4.109.896-34.204 7.459-34.204 7.459zm-199.9 26.547 25.735 7.916 59.053 58.632-41.55 21.23zm211.177 194.351h-29.58l78.447-86.012 53.851-11.508zm263.399-148.073c-10.955 24.654-19.826 41.05-42.425 44.211-.174.024-47.242 6.609-105.305 14.731l16.694-15.849c2.436-2.313 3.037-5.964 1.471-8.936s-4.914-4.541-8.203-3.838l-82.252 17.576c-1.53.326-2.919 1.124-3.974 2.28l-20.318 22.277c-36.577 5.117-70.089 9.805-92.28 12.909l8.904-7.608c2.504-2.141 3.319-5.664 2.009-8.687-1.311-3.022-4.44-4.842-7.714-4.469l-53.562 5.99c-1.602.179-3.103.869-4.281 1.968l-8.068 7.522-50.349-12.19c-.024-.034-.041-.104-.044-.162l75.084-38.365c18.12-3.952 289.495-63.138 289.889-63.224 9.413-2.054 18.723-1.489 29.299 1.772 7.141 2.202 17.497 6.429 26.822 10.457l-83.801 15.396c-4.074.749-6.77 4.658-6.021 8.732.664 3.615 3.818 6.146 7.368 6.146.45 0 106.645-19.466 106.645-19.466 1.829.991 3.404 2.653 4.285 4.612.662 1.477 1.222 3.752.127 6.215z"/><path d="m232.022 265.194-12.239 2.282c-4.072.76-6.757 4.676-5.998 8.748.673 3.607 3.823 6.126 7.365 6.126.456 0 13.622-2.41 13.622-2.41 4.072-.76 6.757-4.676 5.998-8.748s-4.672-6.759-8.748-5.998z"/><path d="m189.186 273.183-12.239 2.282c-4.072.76-6.757 4.676-5.998 8.748.673 3.607 3.823 6.126 7.365 6.126.456 0 13.623-2.41 13.623-2.41 4.072-.76 6.757-4.676 5.998-8.748s-4.676-6.762-8.749-5.998z"/><path d="m146.348 281.17-5.898 1.101c-4.072.76-6.757 4.677-5.997 8.749.673 3.606 3.823 6.125 7.364 6.125.456 0 7.282-1.229 7.282-1.229 4.072-.76 6.757-4.677 5.997-8.749-.76-4.071-4.68-6.753-8.748-5.997z"/></g></g></svg>