<?xml version="1.0"?>
<svg xmlns="http://www.w3.org/2000/svg" xmlns:xlink="http://www.w3.org/1999/xlink" xmlns:svgjs="http://svgjs.com/svgjs" version="1.1" width="16" height="16" x="0" y="0" viewBox="0 0 511.99833 511" style="enable-background:new 0 0 512 512" xml:space="preserve" class=""><g><path xmlns="http://www.w3.org/2000/svg" d="m209.808594 349.476562 9.328125.300782c.222656.007812.421875.15625.492187.367187l4.050782 12.152344c1.320312 3.960937 5.601562 6.101563 9.5625 4.78125 3.960937-1.320313 6.101562-5.601563 4.78125-9.5625l-4.050782-12.148437c-2.0625-6.191407-7.828125-10.492188-14.351562-10.703126-9.207032-.296874-9.769532-.015624-9.847656-.789062l-5.707032-58.242188c-.765625-7.792968-7.195312-14.371093-16.433594-14.113281-.570312.011719-2.019531.054688-2.617187-.167969-.070313-.160156-7.027344-23.042968-7.078125-23.210937-1.484375-4.882813-5.265625-8.738281-10.109375-10.324219-39.972656-13.082031-31.445313-9.453125-45.792969-18.214844h-.003906c-.171875-.105468-.269531-.292968-.257812-.492187l.359374-6.089844c.6875-11.714843-11.265624-19.984375-21.972656-15.238281-19.183594 8.488281-27.476562 12.296875-29.742187 13.085938-12.925781-.832032-13.230469-.542969-13.257813-1.34375l-.074218-2.171876c-.171876-4.992187-2.75-9.644531-6.890626-12.4375-4.140624-2.796874-9.417968-3.445312-14.113281-1.738281-.160156.054688-.410156.050781-.589843-.152343l-20.234376-22.898438c-.132812-.148438-.171874-.355469-.105468-.539062l7.519531-21.0625c.066406-.179688.222656-.3125.40625-.351563l29.464844-5.785156c6.8125-1.339844 11.859375-6.878907 12.5625-13.789063 5.386719-53.140625 5.800781-38.421875-.316407-66.289062-.191406-.921875-.128906-.5625 20.253907-3.664063.1875-.023437.367187.042969.488281.179688l11.960938 13.734375c4.859374 5.582031 13.0625 6.988281 19.503906 3.355468l16.242187-9.160156c6.472657-3.652344 9.496094-11.425781 7.199219-18.488281l-5-15.363281c-.3125-.921875.054688-.636719 39.847656-7.269532.707032-.125-.128906-1.832031 11.738282 33.777344 2.578124 7.726563 10.503906 12.152344 18.429687 10.296875l21.195313-4.960937c7.804687-1.828125 11.328124-8.523438 11.976562-12.960938.367188-.59375-.59375-.566406 23.085938 5.933594 6.300781 1.730469 13.089843-.679688 16.886718-6l5.746094-8.042969c.261719-.371093.792969-.28125.945312.121094 13.230469 34.605469 12.761719 36.367187 19.625 39.796875l22.082032 11.042969c3.738281 1.871093 8.277344.355469 10.144531-3.378907 1.867187-3.734374.355469-8.277343-3.382813-10.144531-5.960937-2.980469-20.628906-10.316406-22.089843-11.046875-1.390625-2.523437-4.941407-12.539062-12.253907-31.667968-4.457031-11.652344-20.125-13.660157-27.371093-3.507813l-5.746094 8.042969c-.132813.183594-.367187.265625-.582031.207031l-22.480469-6.171875c-4.175781-1.144531-8.683594-.5-12.371094 1.773438-4.269531 2.636718-5.921875 6.015624-7.132812 10.257812 0 .367188-.144531.9375-.527344 1.027344-22.175781 5.1875-21.578125 5.367187-21.832031 4.605468l-11.140625-33.417968c-2.453125-7.359375-9.785157-11.773438-17.433594-10.496094l-39.421875 6.570312c-9.453125 1.574219-15.277344 11.195313-12.316406 20.296876l5 15.359374c.222656.6875.488281.222657-16.492188 9.800782-.222656.125-.503906.078125-.671875-.113282l-11.960937-13.738281c-3.539063-4.066406-8.835938-6.007812-14.164063-5.195312l-19.804687 3.011719c-4.265625.648437-8.113282 3.0625-10.554688 6.617187s-3.3125 8.011719-2.386718 12.222656l4.265624 19.433594c-.125 2.359375-1.1875 12.121094-4.226562 42.085937-.0625.625 1.546875.089844-29.898438 6.265626-5.386718 1.058593-9.878906 4.929687-11.730468 10.101562l-7.523438 21.0625c-1.914062 5.371094-.761718 11.363281 3.015625 15.636719l20.234375 22.902343c4.292969 4.851563 10.996094 6.5625 17.089844 4.347657.359375-.128907.710938.125.722656.488281l.078125 2.171875c.273438 8.082031 6.570313 14.570313 14.640625 15.085937 20.792969 1.34375 10.820313 3.628907 49.585938-13.527343.371094-.167969.785156.109375.757812.527343-.339844 5.78125-1.96875 14.839844 7.132813 20.382813l.011719-.019531-.011719.019531c16.164062 9.871094 6.3125 5.714844 48.957031 19.671875.164062.054688.296875.1875.347656.355469l6.992188 22.980469c2.609375 8.570312 9.277344 11.101562 18.011718 11.101562.761719 0 .183594-3.117188 6.25 58.726562.765626 7.800782 7.25 13.871094 15.082032 14.125zm0 0" fill="#0f5132"/><path xmlns="http://www.w3.org/2000/svg" d="m458.164062 223.125c-22.335937 20.835938-23.28125 20.773438-24.585937 26.71875-9.523437 43.324219-12.617187 57.941406-13.511719 61.144531-.226562.324219-36.007812 51.910157-36.402344 51.941407-55.402343 4.265624-53.144531 3.203124-58.121093 7.582031-26.390625 23.011719-27.617188 22.839843-28.699219 29.941406-2.527344 16.617187-3.652344 25.167969-4.277344 27.503906 0 0-45.835937 46.445313-45.886718 46.496094-.210938.210937-.550782.214844-.761719.003906l-32.5-31.980469c-.769531-.746093-1.644531.5 33.078125-26.503906 5.167968-4.019531 7.285156-10.855468 5.320312-17.078125l-2.96875-10.933593c-1.09375-4.03125-5.246094-6.414063-9.277344-5.316407-4.03125 1.09375-6.410156 5.25-5.316406 9.277344.09375.339844 3.03125 11.183594 3.140625 11.519531.070313.214844 0 .453125-.179687.59375l-33.035156 25.695313c-7.472657 5.8125-8.113282 16.882812-1.371094 23.523437l32.5 31.980469c6.148437 6.050781 16.078125 5.976563 22.132812-.160156l45.875-46.484375c5.824219-5.90625 4.117188-11.886719 8.480469-35.878906 1.832031-2.042969 9.359375-8.320313 23.648437-20.777344 3.433594-.632813 17.15625-1.449219 49.375-3.929688 4.710938-.359375 8.957032-2.792968 11.652344-6.667968l36.03125-51.75c2.25-2.910157 1.550782-1.46875 15.839844-66.496094 1.550781-1.800782 8.007812-7.59375 20.132812-18.90625 3.054688-2.851563 3.21875-7.636719.371094-10.6875-2.847656-3.050782-7.628906-3.21875-10.683594-.371094zm0 0" fill="#0f5132"/><path xmlns="http://www.w3.org/2000/svg" d="m508.21875 150.714844c-.933594-7.878906-7.621094-13.816406-15.550781-13.816406h-11.140625c-3.292969-2.21875-15.109375-12.644532-43.390625-36.707032-6.128907-5.214844-8.34375-3.839844-49.730469-1.835937-2.164062-.867188-9.859375-4.984375-26.46875-13.519531-3.710938-1.910157-8.269531-.445313-10.179688 3.269531-1.910156 3.710937-.445312 8.269531 3.269532 10.179687 29.332031 15.078125 28.742187 15.4375 34.105468 15.171875 25.03125-1.210937 35.667969-1.996093 39.230469-1.726562 45.0625 38.335937 45.59375 40.292969 52.445313 40.292969 11.957031-.003907 12.300781-.308594 12.394531.472656.046875.402344 3.800781 31.097656 3.511719 31.378906l-16.96875 16.78125c-4.820313 4.765625-1.378906 12.933594 5.3125 12.933594 4.082031 0 3.964844-.847656 22.285156-18.960938 2.957031-2.921875 4.652344-6.980468 4.652344-11.136718.003906-1.292969.21875.90625-3.777344-32.777344zm0 0" fill="#0f5132"/></g></svg>
